<mxfile host="app.diagrams.net" modified="2022-03-29T15:00:27.953Z" agent="5.0 (Macintosh)" etag="-hHFbo_EUwzBjoIOBohk" version="17.2.4" type="github">
  <diagram id="prtHgNgQTEPvFCAcTncT" name="Page-1">
    <mxGraphModel dx="983" dy="1655" grid="1" gridSize="10" guides="1" tooltips="1" connect="1" arrows="1" fold="1" page="1" pageScale="1" pageWidth="827" pageHeight="1169" math="0" shadow="0">
      <root>
        <mxCell id="0" />
        <mxCell id="1" parent="0" />
        <mxCell id="dNxyNK7c78bLwvsdeMH5-11" value="DASHBOARD" style="swimlane;html=1;startSize=20;horizontal=1;containerType=tree;glass=0;" parent="1" vertex="1">
          <mxGeometry x="107" y="-10" width="616" height="310" as="geometry" />
        </mxCell>
        <mxCell id="9oSKsLNhzL2Dpuv5LzGF-3" value="" style="rounded=0;whiteSpace=wrap;html=1;fillColor=#f8cecc;strokeColor=#b85450;" vertex="1" parent="dNxyNK7c78bLwvsdeMH5-11">
          <mxGeometry x="325" y="29" width="120" height="260" as="geometry" />
        </mxCell>
        <mxCell id="9oSKsLNhzL2Dpuv5LzGF-44" style="edgeStyle=orthogonalEdgeStyle;rounded=0;orthogonalLoop=1;jettySize=auto;html=1;exitX=1;exitY=0.5;exitDx=0;exitDy=0;entryX=1;entryY=0.25;entryDx=0;entryDy=0;fontSize=10;fontColor=#D79B00;" edge="1" parent="dNxyNK7c78bLwvsdeMH5-11" source="9oSKsLNhzL2Dpuv5LzGF-26" target="9oSKsLNhzL2Dpuv5LzGF-39">
          <mxGeometry relative="1" as="geometry" />
        </mxCell>
        <mxCell id="9oSKsLNhzL2Dpuv5LzGF-26" value="" style="rounded=0;whiteSpace=wrap;html=1;fontSize=7;fontColor=#FFFFFF;strokeColor=#B85450;" vertex="1" parent="dNxyNK7c78bLwvsdeMH5-11">
          <mxGeometry x="333" y="85.5" width="104" height="40" as="geometry" />
        </mxCell>
        <mxCell id="9oSKsLNhzL2Dpuv5LzGF-1" value="" style="rounded=0;whiteSpace=wrap;html=1;fillColor=#e1d5e7;strokeColor=#9673a6;" vertex="1" parent="dNxyNK7c78bLwvsdeMH5-11">
          <mxGeometry x="165" y="29" width="120" height="260" as="geometry" />
        </mxCell>
        <mxCell id="9oSKsLNhzL2Dpuv5LzGF-2" value="" style="edgeStyle=orthogonalEdgeStyle;rounded=0;orthogonalLoop=1;jettySize=auto;html=1;" edge="1" source="9oSKsLNhzL2Dpuv5LzGF-1" target="9oSKsLNhzL2Dpuv5LzGF-3" parent="dNxyNK7c78bLwvsdeMH5-11">
          <mxGeometry relative="1" as="geometry">
            <Array as="points">
              <mxPoint x="70" y="310" />
              <mxPoint x="230" y="310" />
            </Array>
          </mxGeometry>
        </mxCell>
        <mxCell id="9oSKsLNhzL2Dpuv5LzGF-4" value="" style="edgeStyle=orthogonalEdgeStyle;rounded=0;orthogonalLoop=1;jettySize=auto;html=1;" edge="1" target="9oSKsLNhzL2Dpuv5LzGF-5" source="9oSKsLNhzL2Dpuv5LzGF-3" parent="dNxyNK7c78bLwvsdeMH5-11">
          <mxGeometry relative="1" as="geometry">
            <mxPoint x="170" y="235" as="sourcePoint" />
            <Array as="points">
              <mxPoint x="230" y="310" />
              <mxPoint x="390" y="310" />
            </Array>
          </mxGeometry>
        </mxCell>
        <mxCell id="9oSKsLNhzL2Dpuv5LzGF-5" value="" style="rounded=0;whiteSpace=wrap;html=1;fillColor=#ffe6cc;strokeColor=#d79b00;" vertex="1" parent="dNxyNK7c78bLwvsdeMH5-11">
          <mxGeometry x="485" y="29" width="120" height="260" as="geometry" />
        </mxCell>
        <mxCell id="9oSKsLNhzL2Dpuv5LzGF-6" value="DOMAIN" style="text;html=1;align=center;verticalAlign=middle;whiteSpace=wrap;rounded=0;fontSize=7;" vertex="1" parent="dNxyNK7c78bLwvsdeMH5-11">
          <mxGeometry x="195" y="29" width="60" height="30" as="geometry" />
        </mxCell>
        <mxCell id="9oSKsLNhzL2Dpuv5LzGF-7" value="DATA" style="text;html=1;align=center;verticalAlign=middle;whiteSpace=wrap;rounded=0;fontSize=7;" vertex="1" parent="dNxyNK7c78bLwvsdeMH5-11">
          <mxGeometry x="355" y="29" width="60" height="30" as="geometry" />
        </mxCell>
        <mxCell id="9oSKsLNhzL2Dpuv5LzGF-12" value="INFRA" style="text;html=1;align=center;verticalAlign=middle;whiteSpace=wrap;rounded=0;fontSize=7;" vertex="1" parent="dNxyNK7c78bLwvsdeMH5-11">
          <mxGeometry x="515" y="29" width="60" height="30" as="geometry" />
        </mxCell>
        <mxCell id="9oSKsLNhzL2Dpuv5LzGF-15" value="" style="rounded=1;whiteSpace=wrap;html=1;fontSize=7;fontColor=#FFFFFF;dashed=1;strokeColor=#9673A6;" vertex="1" parent="dNxyNK7c78bLwvsdeMH5-11">
          <mxGeometry x="173" y="85.5" width="104" height="40" as="geometry" />
        </mxCell>
        <mxCell id="9oSKsLNhzL2Dpuv5LzGF-16" value="GrÃ¡fico" style="text;html=1;strokeColor=none;fillColor=none;align=center;verticalAlign=middle;whiteSpace=wrap;rounded=0;dashed=1;fontSize=10;fontColor=#9673A6;" vertex="1" parent="dNxyNK7c78bLwvsdeMH5-11">
          <mxGeometry x="195" y="90.5" width="60" height="30" as="geometry" />
        </mxCell>
        <mxCell id="9oSKsLNhzL2Dpuv5LzGF-19" value="" style="rounded=1;whiteSpace=wrap;html=1;fontSize=7;fontColor=#FFFFFF;dashed=1;strokeColor=#9673A6;" vertex="1" parent="dNxyNK7c78bLwvsdeMH5-11">
          <mxGeometry x="173" y="182.5" width="104" height="40" as="geometry" />
        </mxCell>
        <mxCell id="9oSKsLNhzL2Dpuv5LzGF-20" value="Atividades" style="text;html=1;strokeColor=none;fillColor=none;align=center;verticalAlign=middle;whiteSpace=wrap;rounded=0;dashed=1;fontSize=10;fontColor=#9673A6;" vertex="1" parent="dNxyNK7c78bLwvsdeMH5-11">
          <mxGeometry x="195" y="187.5" width="60" height="30" as="geometry" />
        </mxCell>
        <mxCell id="9oSKsLNhzL2Dpuv5LzGF-27" value="RemoteGraph" style="text;html=1;strokeColor=none;fillColor=none;align=center;verticalAlign=middle;whiteSpace=wrap;rounded=0;dashed=1;fontSize=10;fontColor=#B85450;" vertex="1" parent="dNxyNK7c78bLwvsdeMH5-11">
          <mxGeometry x="355" y="90.5" width="60" height="30" as="geometry" />
        </mxCell>
        <mxCell id="9oSKsLNhzL2Dpuv5LzGF-28" style="edgeStyle=orthogonalEdgeStyle;rounded=0;orthogonalLoop=1;jettySize=auto;html=1;entryX=1;entryY=0.5;entryDx=0;entryDy=0;fontSize=10;fontColor=#B85450;" edge="1" parent="dNxyNK7c78bLwvsdeMH5-11" source="9oSKsLNhzL2Dpuv5LzGF-26" target="9oSKsLNhzL2Dpuv5LzGF-15">
          <mxGeometry relative="1" as="geometry" />
        </mxCell>
        <mxCell id="9oSKsLNhzL2Dpuv5LzGF-45" style="edgeStyle=orthogonalEdgeStyle;rounded=0;orthogonalLoop=1;jettySize=auto;html=1;exitX=1;exitY=0.5;exitDx=0;exitDy=0;entryX=1;entryY=0.25;entryDx=0;entryDy=0;fontSize=10;fontColor=#D79B00;" edge="1" parent="dNxyNK7c78bLwvsdeMH5-11" source="9oSKsLNhzL2Dpuv5LzGF-30" target="9oSKsLNhzL2Dpuv5LzGF-39">
          <mxGeometry relative="1" as="geometry" />
        </mxCell>
        <mxCell id="9oSKsLNhzL2Dpuv5LzGF-30" value="" style="rounded=0;whiteSpace=wrap;html=1;fontSize=7;fontColor=#FFFFFF;strokeColor=#B85450;" vertex="1" parent="dNxyNK7c78bLwvsdeMH5-11">
          <mxGeometry x="333" y="133" width="104" height="40" as="geometry" />
        </mxCell>
        <mxCell id="9oSKsLNhzL2Dpuv5LzGF-31" value="RemoteTotalData" style="text;html=1;strokeColor=none;fillColor=none;align=center;verticalAlign=middle;whiteSpace=wrap;rounded=0;dashed=1;fontSize=10;fontColor=#B85450;" vertex="1" parent="dNxyNK7c78bLwvsdeMH5-11">
          <mxGeometry x="355" y="138" width="60" height="30" as="geometry" />
        </mxCell>
        <mxCell id="9oSKsLNhzL2Dpuv5LzGF-38" style="edgeStyle=orthogonalEdgeStyle;rounded=0;orthogonalLoop=1;jettySize=auto;html=1;exitX=0;exitY=0.5;exitDx=0;exitDy=0;fontSize=10;fontColor=#B85450;" edge="1" parent="dNxyNK7c78bLwvsdeMH5-11" source="9oSKsLNhzL2Dpuv5LzGF-36" target="9oSKsLNhzL2Dpuv5LzGF-19">
          <mxGeometry relative="1" as="geometry" />
        </mxCell>
        <mxCell id="9oSKsLNhzL2Dpuv5LzGF-48" style="edgeStyle=orthogonalEdgeStyle;rounded=0;orthogonalLoop=1;jettySize=auto;html=1;exitX=1;exitY=0.5;exitDx=0;exitDy=0;entryX=1;entryY=0.5;entryDx=0;entryDy=0;fontSize=10;fontColor=#D79B00;" edge="1" parent="dNxyNK7c78bLwvsdeMH5-11" source="9oSKsLNhzL2Dpuv5LzGF-36" target="9oSKsLNhzL2Dpuv5LzGF-39">
          <mxGeometry relative="1" as="geometry" />
        </mxCell>
        <mxCell id="9oSKsLNhzL2Dpuv5LzGF-36" value="" style="rounded=0;whiteSpace=wrap;html=1;fontSize=7;fontColor=#FFFFFF;strokeColor=#B85450;" vertex="1" parent="dNxyNK7c78bLwvsdeMH5-11">
          <mxGeometry x="333" y="182.5" width="104" height="40" as="geometry" />
        </mxCell>
        <mxCell id="9oSKsLNhzL2Dpuv5LzGF-37" value="RemoteActivities" style="text;html=1;strokeColor=none;fillColor=none;align=center;verticalAlign=middle;whiteSpace=wrap;rounded=0;dashed=1;fontSize=10;fontColor=#B85450;" vertex="1" parent="dNxyNK7c78bLwvsdeMH5-11">
          <mxGeometry x="355" y="187.5" width="60" height="30" as="geometry" />
        </mxCell>
        <mxCell id="9oSKsLNhzL2Dpuv5LzGF-39" value="" style="rounded=1;whiteSpace=wrap;html=1;fontSize=7;fontColor=#FFFFFF;strokeColor=#B85450;dashed=1;" vertex="1" parent="dNxyNK7c78bLwvsdeMH5-11">
          <mxGeometry x="333" y="231" width="104" height="40" as="geometry" />
        </mxCell>
        <mxCell id="9oSKsLNhzL2Dpuv5LzGF-40" value="HttpGetClient" style="text;html=1;strokeColor=none;fillColor=none;align=center;verticalAlign=middle;whiteSpace=wrap;rounded=0;dashed=1;fontSize=10;fontColor=#B85450;" vertex="1" parent="dNxyNK7c78bLwvsdeMH5-11">
          <mxGeometry x="355" y="236" width="60" height="30" as="geometry" />
        </mxCell>
        <mxCell id="9oSKsLNhzL2Dpuv5LzGF-43" style="edgeStyle=orthogonalEdgeStyle;rounded=0;orthogonalLoop=1;jettySize=auto;html=1;exitX=0;exitY=0.5;exitDx=0;exitDy=0;entryX=1;entryY=0.5;entryDx=0;entryDy=0;fontSize=10;fontColor=#D79B00;" edge="1" parent="dNxyNK7c78bLwvsdeMH5-11" source="9oSKsLNhzL2Dpuv5LzGF-41" target="9oSKsLNhzL2Dpuv5LzGF-39">
          <mxGeometry relative="1" as="geometry">
            <Array as="points">
              <mxPoint x="471" y="153" />
              <mxPoint x="471" y="251" />
            </Array>
          </mxGeometry>
        </mxCell>
        <mxCell id="9oSKsLNhzL2Dpuv5LzGF-41" value="" style="rounded=0;whiteSpace=wrap;html=1;fontSize=7;fontColor=#FFFFFF;strokeColor=#D79B00;" vertex="1" parent="dNxyNK7c78bLwvsdeMH5-11">
          <mxGeometry x="493" y="133" width="104" height="40" as="geometry" />
        </mxCell>
        <mxCell id="9oSKsLNhzL2Dpuv5LzGF-42" value="ApiSauceHttpClient" style="text;html=1;strokeColor=none;fillColor=none;align=center;verticalAlign=middle;whiteSpace=wrap;rounded=0;dashed=1;fontSize=10;fontColor=#D79B00;" vertex="1" parent="dNxyNK7c78bLwvsdeMH5-11">
          <mxGeometry x="515" y="138" width="60" height="30" as="geometry" />
        </mxCell>
        <mxCell id="9oSKsLNhzL2Dpuv5LzGF-59" value="" style="rounded=0;whiteSpace=wrap;html=1;fillColor=#dae8fc;strokeColor=#6C8EBF;" vertex="1" parent="dNxyNK7c78bLwvsdeMH5-11">
          <mxGeometry x="23" y="29" width="120" height="260" as="geometry" />
        </mxCell>
        <mxCell id="9oSKsLNhzL2Dpuv5LzGF-60" value="PRESENTATION" style="text;html=1;align=center;verticalAlign=middle;whiteSpace=wrap;rounded=0;fontSize=7;" vertex="1" parent="dNxyNK7c78bLwvsdeMH5-11">
          <mxGeometry x="53" y="29" width="60" height="30" as="geometry" />
        </mxCell>
        <mxCell id="9oSKsLNhzL2Dpuv5LzGF-63" style="edgeStyle=orthogonalEdgeStyle;rounded=0;orthogonalLoop=1;jettySize=auto;html=1;exitX=1;exitY=0.25;exitDx=0;exitDy=0;entryX=0;entryY=0.5;entryDx=0;entryDy=0;fontSize=10;fontColor=#6C8EBF;" edge="1" parent="dNxyNK7c78bLwvsdeMH5-11" source="9oSKsLNhzL2Dpuv5LzGF-61" target="9oSKsLNhzL2Dpuv5LzGF-15">
          <mxGeometry relative="1" as="geometry">
            <Array as="points">
              <mxPoint x="153" y="143" />
              <mxPoint x="153" y="106" />
            </Array>
          </mxGeometry>
        </mxCell>
        <mxCell id="9oSKsLNhzL2Dpuv5LzGF-65" style="edgeStyle=orthogonalEdgeStyle;rounded=0;orthogonalLoop=1;jettySize=auto;html=1;exitX=1;exitY=0.75;exitDx=0;exitDy=0;entryX=0;entryY=0.5;entryDx=0;entryDy=0;fontSize=10;fontColor=#6C8EBF;" edge="1" parent="dNxyNK7c78bLwvsdeMH5-11" source="9oSKsLNhzL2Dpuv5LzGF-61" target="9oSKsLNhzL2Dpuv5LzGF-19">
          <mxGeometry relative="1" as="geometry">
            <Array as="points">
              <mxPoint x="153" y="163" />
              <mxPoint x="153" y="202" />
            </Array>
          </mxGeometry>
        </mxCell>
        <mxCell id="9oSKsLNhzL2Dpuv5LzGF-61" value="" style="rounded=0;whiteSpace=wrap;html=1;fontSize=7;fontColor=#FFFFFF;strokeColor=#6C8EBF;" vertex="1" parent="dNxyNK7c78bLwvsdeMH5-11">
          <mxGeometry x="31" y="133" width="104" height="40" as="geometry" />
        </mxCell>
        <mxCell id="9oSKsLNhzL2Dpuv5LzGF-62" value="Dashboard" style="text;html=1;strokeColor=none;fillColor=none;align=center;verticalAlign=middle;whiteSpace=wrap;rounded=0;dashed=1;fontSize=10;fontColor=#6C8EBF;" vertex="1" parent="dNxyNK7c78bLwvsdeMH5-11">
          <mxGeometry x="53" y="138" width="60" height="30" as="geometry" />
        </mxCell>
        <mxCell id="9oSKsLNhzL2Dpuv5LzGF-17" value="" style="rounded=1;whiteSpace=wrap;html=1;fontSize=7;fontColor=#FFFFFF;dashed=1;strokeColor=#9673A6;" vertex="1" parent="1">
          <mxGeometry x="280" y="123.5" width="104" height="40" as="geometry" />
        </mxCell>
        <mxCell id="9oSKsLNhzL2Dpuv5LzGF-18" value="Total Data" style="text;html=1;strokeColor=none;fillColor=none;align=center;verticalAlign=middle;whiteSpace=wrap;rounded=0;dashed=1;fontSize=10;fontColor=#9673A6;" vertex="1" parent="1">
          <mxGeometry x="302" y="128.5" width="60" height="30" as="geometry" />
        </mxCell>
        <mxCell id="9oSKsLNhzL2Dpuv5LzGF-21" value="" style="rounded=1;whiteSpace=wrap;html=1;dashed=1;fontSize=7;fontColor=#000000;strokeColor=#000000;fillColor=none;" vertex="1" parent="1">
          <mxGeometry x="103" y="-80" width="84" height="40" as="geometry" />
        </mxCell>
        <mxCell id="9oSKsLNhzL2Dpuv5LzGF-22" value="Interfaces" style="text;html=1;strokeColor=none;fillColor=none;align=center;verticalAlign=middle;whiteSpace=wrap;rounded=0;dashed=1;fontSize=7;fontColor=#000000;" vertex="1" parent="1">
          <mxGeometry x="115" y="-75" width="60" height="30" as="geometry" />
        </mxCell>
        <mxCell id="9oSKsLNhzL2Dpuv5LzGF-23" value="" style="rounded=0;whiteSpace=wrap;html=1;fontSize=7;fontColor=#000000;strokeColor=#000000;fillColor=none;" vertex="1" parent="1">
          <mxGeometry x="203" y="-80" width="84" height="40" as="geometry" />
        </mxCell>
        <mxCell id="9oSKsLNhzL2Dpuv5LzGF-24" value="Classes" style="text;html=1;strokeColor=none;fillColor=none;align=center;verticalAlign=middle;whiteSpace=wrap;rounded=0;dashed=1;fontSize=7;fontColor=#000000;" vertex="1" parent="1">
          <mxGeometry x="215" y="-75" width="60" height="30" as="geometry" />
        </mxCell>
        <mxCell id="9oSKsLNhzL2Dpuv5LzGF-34" style="edgeStyle=orthogonalEdgeStyle;rounded=0;orthogonalLoop=1;jettySize=auto;html=1;exitX=0;exitY=0.5;exitDx=0;exitDy=0;fontSize=10;fontColor=#B85450;" edge="1" parent="1" source="9oSKsLNhzL2Dpuv5LzGF-30" target="9oSKsLNhzL2Dpuv5LzGF-17">
          <mxGeometry relative="1" as="geometry">
            <Array as="points">
              <mxPoint x="418" y="143" />
            </Array>
          </mxGeometry>
        </mxCell>
        <mxCell id="9oSKsLNhzL2Dpuv5LzGF-49" value="" style="rounded=0;whiteSpace=wrap;html=1;fontSize=10;fontColor=#D79B00;strokeColor=#000000;fillColor=none;" vertex="1" parent="1">
          <mxGeometry x="622" y="319" width="120" height="50" as="geometry" />
        </mxCell>
        <mxCell id="9oSKsLNhzL2Dpuv5LzGF-50" value="ApiSauce" style="text;html=1;strokeColor=none;fillColor=none;align=center;verticalAlign=middle;whiteSpace=wrap;rounded=0;fontSize=10;fontColor=#000000;" vertex="1" parent="1">
          <mxGeometry x="652" y="329" width="60" height="30" as="geometry" />
        </mxCell>
        <mxCell id="9oSKsLNhzL2Dpuv5LzGF-51" style="edgeStyle=orthogonalEdgeStyle;rounded=0;orthogonalLoop=1;jettySize=auto;html=1;exitX=0.5;exitY=1;exitDx=0;exitDy=0;entryX=0.5;entryY=0;entryDx=0;entryDy=0;fontSize=10;fontColor=#000000;" edge="1" parent="1" source="9oSKsLNhzL2Dpuv5LzGF-41" target="9oSKsLNhzL2Dpuv5LzGF-49">
          <mxGeometry relative="1" as="geometry" />
        </mxCell>
        <mxCell id="9oSKsLNhzL2Dpuv5LzGF-64" style="edgeStyle=orthogonalEdgeStyle;rounded=0;orthogonalLoop=1;jettySize=auto;html=1;exitX=1;exitY=0.5;exitDx=0;exitDy=0;entryX=0;entryY=0.5;entryDx=0;entryDy=0;fontSize=10;fontColor=#6C8EBF;" edge="1" parent="1" source="9oSKsLNhzL2Dpuv5LzGF-61" target="9oSKsLNhzL2Dpuv5LzGF-17">
          <mxGeometry relative="1" as="geometry" />
        </mxCell>
      </root>
    </mxGraphModel>
  </diagram>
</mxfile>
